<?xml version="1.0" encoding="UTF-8" standalone="no"?>
<!DOCTYPE svg PUBLIC "-//W3C//DTD SVG 1.1//EN"
 "http://www.w3.org/Graphics/SVG/1.1/DTD/svg11.dtd">
<!-- Generated by graphviz version 3.0.0 (20220226.1711)
 -->
<!-- Title: BootStrap Pages: 1 -->
<svg width="694pt" height="904pt"
 viewBox="18.00 18.00 675.50 886.00" xmlns="http://www.w3.org/2000/svg" xmlns:xlink="http://www.w3.org/1999/xlink">
<g id="graph0" class="graph" transform="scale(1 1) rotate(0) translate(22 882)">
<title>BootStrap</title>
<polygon fill="white" stroke="transparent" points="-4,4 -4,-864 653.5,-864 653.5,4 -4,4"/>
<text text-anchor="middle" x="324.75" y="-7" font-family="Verdana" font-size="10.00">Development Environment Bootstrapping</text>
<!-- start -->
<g id="node1" class="node">
<title>start</title>
<polygon fill="none" stroke="black" points="385.5,-860 352.4,-842 385.5,-824 418.6,-842 385.5,-860"/>
<polyline fill="none" stroke="black" points="362.94,-847.73 362.94,-836.27 "/>
<polyline fill="none" stroke="black" points="374.96,-829.73 396.04,-829.73 "/>
<polyline fill="none" stroke="black" points="408.06,-836.27 408.06,-847.73 "/>
<polyline fill="none" stroke="black" points="396.04,-854.27 374.96,-854.27 "/>
<text text-anchor="middle" x="385.5" y="-839.5" font-family="Verdana" font-size="10.00">start</text>
</g>
<!-- organization -->
<g id="node2" class="node">
<title>organization</title>
<g id="a_node2"><a xlink:href="https://google.com" xlink:title="organization">
<polygon fill="none" stroke="black" points="424.5,-788 346.5,-788 346.5,-752 424.5,-752 424.5,-788"/>
<text text-anchor="middle" x="385.5" y="-767.5" font-family="Verdana" font-size="10.00">organization</text>
</a>
</g>
</g>
<!-- start&#45;&gt;organization -->
<g id="edge1" class="edge">
<title>start&#45;&gt;organization</title>
<path fill="none" stroke="black" d="M385.5,-823.7C385.5,-815.98 385.5,-806.71 385.5,-798.11"/>
<polygon fill="black" stroke="black" points="389,-798.1 385.5,-788.1 382,-798.1 389,-798.1"/>
</g>
<!-- credit_card -->
<g id="node3" class="node">
<title>credit_card</title>
<g id="a_node3"><a xlink:href="https://google.com" xlink:title="credit_card">
<polygon fill="none" stroke="black" points="351,-716 278,-716 278,-680 351,-680 351,-716"/>
<text text-anchor="middle" x="314.5" y="-695.5" font-family="Verdana" font-size="10.00">credit_card</text>
</a>
</g>
</g>
<!-- organization&#45;&gt;credit_card -->
<g id="edge2" class="edge">
<title>organization&#45;&gt;credit_card</title>
<path fill="none" stroke="black" d="M367.95,-751.7C359.27,-743.14 348.64,-732.66 339.15,-723.3"/>
<polygon fill="black" stroke="black" points="341.43,-720.63 331.85,-716.1 336.51,-725.62 341.43,-720.63"/>
</g>
<!-- org_note -->
<g id="node4" class="node">
<title>org_note</title>
<polygon fill="#f6e8c3" stroke="#f6e8c3" points="536,-716 373,-716 373,-680 542,-680 542,-710 536,-716"/>
<polyline fill="none" stroke="#f6e8c3" points="536,-716 536,-710 "/>
<polyline fill="none" stroke="#f6e8c3" points="542,-710 536,-710 "/>
<text text-anchor="start" x="381" y="-696.1" font-family="Verdana" font-size="8.00">Digital asset organization and backup</text>
</g>
<!-- organization&#45;&gt;org_note -->
<g id="edge3" class="edge">
<title>organization&#45;&gt;org_note</title>
<path fill="none" stroke="black" stroke-dasharray="1,5" d="M403.3,-751.7C414.46,-740.85 428.79,-726.92 439.91,-716.1"/>
</g>
<!-- macbookpro -->
<g id="node5" class="node">
<title>macbookpro</title>
<g id="a_node5"><a xlink:href="https://google.com" xlink:title="macbookpro">
<polygon fill="none" stroke="black" points="353.5,-644 275.5,-644 275.5,-608 353.5,-608 353.5,-644"/>
<text text-anchor="middle" x="314.5" y="-623.5" font-family="Verdana" font-size="10.00">macbookpro</text>
</a>
</g>
</g>
<!-- credit_card&#45;&gt;macbookpro -->
<g id="edge4" class="edge">
<title>credit_card&#45;&gt;macbookpro</title>
<path fill="none" stroke="black" d="M314.5,-679.7C314.5,-671.98 314.5,-662.71 314.5,-654.11"/>
<polygon fill="black" stroke="black" points="318,-654.1 314.5,-644.1 311,-654.1 318,-654.1"/>
</g>
<!-- password_manager -->
<g id="node6" class="node">
<title>password_manager</title>
<g id="a_node6"><a xlink:href="https://google.com" xlink:title="password_manager">
<polygon fill="none" stroke="black" points="371.5,-572 257.5,-572 257.5,-536 371.5,-536 371.5,-572"/>
<text text-anchor="middle" x="314.5" y="-551.5" font-family="Verdana" font-size="10.00">password_manager</text>
</a>
</g>
</g>
<!-- macbookpro&#45;&gt;password_manager -->
<g id="edge5" class="edge">
<title>macbookpro&#45;&gt;password_manager</title>
<path fill="none" stroke="black" d="M314.5,-607.7C314.5,-599.98 314.5,-590.71 314.5,-582.11"/>
<polygon fill="black" stroke="black" points="318,-582.1 314.5,-572.1 311,-582.1 318,-582.1"/>
</g>
<!-- configure_macos -->
<g id="node7" class="node">
<title>configure_macos</title>
<g id="a_node7"><a xlink:href="https://google.com" xlink:title="configure_macos">
<polygon fill="none" stroke="black" points="101,-500 0,-500 0,-464 101,-464 101,-500"/>
<text text-anchor="middle" x="50.5" y="-479.5" font-family="Verdana" font-size="10.00">configure_macos</text>
</a>
</g>
</g>
<!-- password_manager&#45;&gt;configure_macos -->
<g id="edge6" class="edge">
<title>password_manager&#45;&gt;configure_macos</title>
<path fill="none" stroke="black" d="M257.42,-538.2C216.94,-527.67 161.35,-513.11 112.5,-500 112.04,-499.88 111.58,-499.75 111.12,-499.63"/>
<polygon fill="black" stroke="black" points="111.81,-496.19 101.24,-496.96 109.98,-502.95 111.81,-496.19"/>
</g>
<!-- setup_time_machine -->
<g id="node9" class="node">
<title>setup_time_machine</title>
<g id="a_node9"><a xlink:href="https://google.com" xlink:title="setup_time_machine">
<polygon fill="none" stroke="black" points="243.5,-500 123.5,-500 123.5,-464 243.5,-464 243.5,-500"/>
<text text-anchor="middle" x="183.5" y="-479.5" font-family="Verdana" font-size="10.00">setup_time_machine</text>
</a>
</g>
</g>
<!-- password_manager&#45;&gt;setup_time_machine -->
<g id="edge8" class="edge">
<title>password_manager&#45;&gt;setup_time_machine</title>
<path fill="none" stroke="black" d="M282.45,-535.88C265.01,-526.55 243.23,-514.92 224.56,-504.94"/>
<polygon fill="black" stroke="black" points="226.14,-501.82 215.67,-500.19 222.84,-507.99 226.14,-501.82"/>
</g>
<!-- install_browsers -->
<g id="node10" class="node">
<title>install_browsers</title>
<polygon fill="none" stroke="black" points="363.5,-500 265.5,-500 265.5,-464 363.5,-464 363.5,-500"/>
<text text-anchor="middle" x="314.5" y="-479.5" font-family="Verdana" font-size="10.00">install_browsers</text>
</g>
<!-- password_manager&#45;&gt;install_browsers -->
<g id="edge10" class="edge">
<title>password_manager&#45;&gt;install_browsers</title>
<path fill="none" stroke="black" d="M314.5,-535.7C314.5,-527.98 314.5,-518.71 314.5,-510.11"/>
<polygon fill="black" stroke="black" points="318,-510.1 314.5,-500.1 311,-510.1 318,-510.1"/>
</g>
<!-- install_apps_app_store -->
<g id="node11" class="node">
<title>install_apps_app_store</title>
<g id="a_node11"><a xlink:href="https://google.com" xlink:title="install_apps_app_store">
<polygon fill="none" stroke="black" points="517,-500 386,-500 386,-464 517,-464 517,-500"/>
<text text-anchor="middle" x="451.5" y="-479.5" font-family="Verdana" font-size="10.00">install_apps_app_store</text>
</a>
</g>
</g>
<!-- password_manager&#45;&gt;install_apps_app_store -->
<g id="edge12" class="edge">
<title>password_manager&#45;&gt;install_apps_app_store</title>
<path fill="none" stroke="black" d="M348.01,-535.88C366.34,-526.51 389.24,-514.81 408.83,-504.8"/>
<polygon fill="black" stroke="black" points="410.54,-507.86 417.86,-500.19 407.36,-501.62 410.54,-507.86"/>
</g>
<!-- install_apps_direct -->
<g id="node12" class="node">
<title>install_apps_direct</title>
<g id="a_node12"><a xlink:href="https://google.com" xlink:title="install_apps_direct">
<polygon fill="none" stroke="black" points="649.5,-500 539.5,-500 539.5,-464 649.5,-464 649.5,-500"/>
<text text-anchor="middle" x="594.5" y="-479.5" font-family="Verdana" font-size="10.00">install_apps_direct</text>
</a>
</g>
</g>
<!-- password_manager&#45;&gt;install_apps_direct -->
<g id="edge14" class="edge">
<title>password_manager&#45;&gt;install_apps_direct</title>
<path fill="none" stroke="black" d="M371.76,-538.97C414.88,-528.37 475.43,-513.41 528.5,-500 528.83,-499.92 529.17,-499.83 529.5,-499.75"/>
<polygon fill="black" stroke="black" points="530.58,-503.08 539.41,-497.23 528.86,-496.3 530.58,-503.08"/>
</g>
<!-- setup_dev_env -->
<g id="node8" class="node">
<title>setup_dev_env</title>
<g id="a_node8"><a xlink:href="https://google.com" xlink:title="setup_dev_env">
<polygon fill="none" stroke="black" points="398,-428 231,-428 231,-246 398,-246 398,-428"/>
<polygon fill="none" stroke="black" points="238.5,-400 238.5,-421 391.5,-421 391.5,-400 238.5,-400"/>
<text text-anchor="start" x="274" y="-409" font-family="Verdana" font-weight="bold" font-size="10.00">Setup Dev Env</text>
<polygon fill="none" stroke="black" points="238.5,-379 238.5,-400 391.5,-400 391.5,-379 238.5,-379"/>
<text text-anchor="start" x="291.5" y="-387" font-family="Verdana" font-size="10.00">keyboard</text>
<polygon fill="none" stroke="black" points="238.5,-358 238.5,-379 391.5,-379 391.5,-358 238.5,-358"/>
<text text-anchor="start" x="278.5" y="-366" font-family="Verdana" font-size="10.00">xcode cli tools</text>
<polygon fill="none" stroke="black" points="238.5,-337 238.5,-358 391.5,-358 391.5,-337 238.5,-337"/>
<text text-anchor="start" x="288.5" y="-345" font-family="Verdana" font-size="10.00">homebrew</text>
<polygon fill="none" stroke="black" points="238.5,-316 238.5,-337 391.5,-337 391.5,-316 238.5,-316"/>
<text text-anchor="start" x="289" y="-324" font-family="Verdana" font-size="10.00">miniconda</text>
<polygon fill="none" stroke="black" points="238.5,-295 238.5,-316 391.5,-316 391.5,-295 238.5,-295"/>
<text text-anchor="start" x="298" y="-303" font-family="Verdana" font-size="10.00">golang</text>
<polygon fill="none" stroke="black" points="238.5,-274 238.5,-295 391.5,-295 391.5,-274 238.5,-274"/>
<text text-anchor="start" x="243.5" y="-282" font-family="Verdana" font-size="10.00">zshrc_vimrc_inputrc_tmuxrc</text>
<polygon fill="none" stroke="black" points="238.5,-253 238.5,-274 391.5,-274 391.5,-253 238.5,-253"/>
<text text-anchor="start" x="298" y="-261" font-family="Verdana" font-size="10.00">iterm2</text>
</a>
</g>
</g>
<!-- configure_macos&#45;&gt;setup_dev_env -->
<g id="edge7" class="edge">
<title>configure_macos&#45;&gt;setup_dev_env</title>
<path fill="none" stroke="black" d="M82.08,-463.89C116.48,-445.26 173.12,-414.58 221.87,-388.17"/>
<polygon fill="black" stroke="black" points="223.75,-391.14 230.88,-383.29 220.42,-384.98 223.75,-391.14"/>
</g>
<!-- setup_accounts -->
<g id="node13" class="node">
<title>setup_accounts</title>
<g id="a_node13"><a xlink:href="https://google.com" xlink:title="setup_accounts">
<polygon fill="none" stroke="black" points="323,-210 142,-210 142,-91 323,-91 323,-210"/>
<polygon fill="none" stroke="black" points="149.5,-181.5 149.5,-202.5 316.5,-202.5 316.5,-181.5 149.5,-181.5"/>
<text text-anchor="start" x="190" y="-190.5" font-family="Verdana" font-weight="bold" font-size="10.00">Setup Accounts</text>
<polygon fill="none" stroke="black" points="149.5,-160.5 149.5,-181.5 190.5,-181.5 190.5,-160.5 149.5,-160.5"/>
<text text-anchor="start" x="160" y="-168.5" font-family="Verdana" font-size="10.00">aws</text>
<polygon fill="none" stroke="black" points="190.5,-160.5 190.5,-181.5 261.5,-181.5 261.5,-160.5 190.5,-160.5"/>
<text text-anchor="start" x="217" y="-168.5" font-family="Verdana" font-size="10.00">gcp</text>
<polygon fill="none" stroke="black" points="261.5,-160.5 261.5,-181.5 316.5,-181.5 316.5,-160.5 261.5,-160.5"/>
<text text-anchor="start" x="275" y="-168.5" font-family="Verdana" font-size="10.00">azure</text>
<polygon fill="none" stroke="black" points="149.5,-139.5 149.5,-160.5 190.5,-160.5 190.5,-139.5 149.5,-139.5"/>
<text text-anchor="start" x="154.5" y="-147.5" font-family="Verdana" font-size="10.00">linode</text>
<polygon fill="none" stroke="black" points="190.5,-139.5 190.5,-160.5 261.5,-160.5 261.5,-139.5 190.5,-139.5"/>
<text text-anchor="start" x="195.5" y="-147.5" font-family="Verdana" font-size="10.00">digitalocean</text>
<polygon fill="none" stroke="black" points="261.5,-139.5 261.5,-160.5 316.5,-160.5 316.5,-139.5 261.5,-139.5"/>
<text text-anchor="start" x="272.5" y="-147.5" font-family="Verdana" font-size="10.00">redhat</text>
<polygon fill="none" stroke="black" points="149.5,-118.5 149.5,-139.5 190.5,-139.5 190.5,-118.5 149.5,-118.5"/>
<text text-anchor="start" x="154.5" y="-126.5" font-family="Verdana" font-size="10.00">github</text>
<polygon fill="none" stroke="black" points="190.5,-118.5 190.5,-139.5 261.5,-139.5 261.5,-118.5 190.5,-118.5"/>
<text text-anchor="start" x="213" y="-126.5" font-family="Verdana" font-size="10.00">slack</text>
<polygon fill="none" stroke="black" points="261.5,-118.5 261.5,-139.5 316.5,-139.5 316.5,-118.5 261.5,-118.5"/>
<text text-anchor="start" x="266.5" y="-126.5" font-family="Verdana" font-size="10.00">atlassian</text>
<polygon fill="none" stroke="black" points="149.5,-97.5 149.5,-118.5 190.5,-118.5 190.5,-97.5 149.5,-97.5"/>
<text text-anchor="start" x="156" y="-105.5" font-family="Verdana" font-size="10.00">wrike</text>
<polygon fill="none" stroke="black" points="190.5,-97.5 190.5,-118.5 261.5,-118.5 261.5,-97.5 190.5,-97.5"/>
<text text-anchor="start" x="211" y="-105.5" font-family="Verdana" font-size="10.00">asana</text>
<polygon fill="none" stroke="black" points="261.5,-97.5 261.5,-118.5 316.5,-118.5 316.5,-97.5 261.5,-97.5"/>
<text text-anchor="start" x="275.5" y="-105.5" font-family="Verdana" font-size="10.00">trello</text>
</a>
</g>
</g>
<!-- setup_dev_env&#45;&gt;setup_accounts -->
<g id="edge16" class="edge">
<title>setup_dev_env&#45;&gt;setup_accounts</title>
<path fill="none" stroke="black" d="M274.46,-245.91C270.49,-236.98 266.51,-228.02 262.66,-219.36"/>
<polygon fill="black" stroke="black" points="265.81,-217.83 258.55,-210.11 259.41,-220.67 265.81,-217.83"/>
</g>
<!-- dev_env_note -->
<g id="node14" class="node">
<title>dev_env_note</title>
<polygon fill="#f6e8c3" stroke="#f6e8c3" points="443.5,-168.5 345.5,-168.5 345.5,-132.5 449.5,-132.5 449.5,-162.5 443.5,-168.5"/>
<polyline fill="none" stroke="#f6e8c3" points="443.5,-168.5 443.5,-162.5 "/>
<polyline fill="none" stroke="#f6e8c3" points="449.5,-162.5 443.5,-162.5 "/>
<text text-anchor="start" x="353.5" y="-148.6" font-family="Verdana" font-size="8.00">Verify system backup</text>
</g>
<!-- setup_dev_env&#45;&gt;dev_env_note -->
<g id="edge17" class="edge">
<title>setup_dev_env&#45;&gt;dev_env_note</title>
<path fill="none" stroke="black" stroke-dasharray="1,5" d="M355.03,-245.91C368.28,-216.46 381.66,-186.71 389.77,-168.69"/>
</g>
<!-- setup_time_machine&#45;&gt;setup_dev_env -->
<g id="edge9" class="edge">
<title>setup_time_machine&#45;&gt;setup_dev_env</title>
<path fill="none" stroke="black" d="M199.3,-463.75C206.38,-456.03 215.33,-446.25 225.11,-435.58"/>
<polygon fill="black" stroke="black" points="227.83,-437.79 232,-428.06 222.66,-433.07 227.83,-437.79"/>
</g>
<!-- install_browsers&#45;&gt;setup_dev_env -->
<g id="edge11" class="edge">
<title>install_browsers&#45;&gt;setup_dev_env</title>
<path fill="none" stroke="black" d="M314.5,-463.75C314.5,-456.69 314.5,-447.93 314.5,-438.33"/>
<polygon fill="black" stroke="black" points="318,-438.06 314.5,-428.06 311,-438.06 318,-438.06"/>
</g>
<!-- install_apps_app_store&#45;&gt;setup_dev_env -->
<g id="edge13" class="edge">
<title>install_apps_app_store&#45;&gt;setup_dev_env</title>
<path fill="none" stroke="black" d="M434.97,-463.75C426.9,-455.32 416.49,-444.46 405.17,-432.64"/>
<polygon fill="black" stroke="black" points="407.47,-429.98 398.02,-425.18 402.41,-434.82 407.47,-429.98"/>
</g>
<!-- install_apps_direct&#45;&gt;setup_dev_env -->
<g id="edge15" class="edge">
<title>install_apps_direct&#45;&gt;setup_dev_env</title>
<path fill="none" stroke="black" d="M561,-463.89C523.2,-444.59 460.08,-412.35 407.17,-385.33"/>
<polygon fill="black" stroke="black" points="408.6,-382.13 398.1,-380.69 405.41,-388.36 408.6,-382.13"/>
</g>
<!-- account_note -->
<g id="node15" class="node">
<title>account_note</title>
<polygon fill="#f6e8c3" stroke="#f6e8c3" points="238.5,-55 116.5,-55 116.5,-19 244.5,-19 244.5,-49 238.5,-55"/>
<polyline fill="none" stroke="#f6e8c3" points="238.5,-55 238.5,-49 "/>
<polyline fill="none" stroke="#f6e8c3" points="244.5,-49 238.5,-49 "/>
<text text-anchor="start" x="124.5" y="-35.1" font-family="Verdana" font-size="8.00">Add accounts to 1Password</text>
</g>
<!-- setup_accounts&#45;&gt;account_note -->
<g id="edge18" class="edge">
<title>setup_accounts&#45;&gt;account_note</title>
<path fill="none" stroke="black" stroke-dasharray="1,5" d="M205.13,-90.81C199.06,-77.8 193.09,-65 188.55,-55.27"/>
</g>
<!-- end -->
<g id="node16" class="node">
<title>end</title>
<polygon fill="none" stroke="black" points="302.5,-55 266.5,-55 266.5,-19 302.5,-19 302.5,-55"/>
<polyline fill="none" stroke="black" points="278.5,-55 266.5,-43 "/>
<polyline fill="none" stroke="black" points="266.5,-31 278.5,-19 "/>
<polyline fill="none" stroke="black" points="290.5,-19 302.5,-31 "/>
<polyline fill="none" stroke="black" points="302.5,-43 290.5,-55 "/>
<text text-anchor="middle" x="284.5" y="-34.5" font-family="Verdana" font-size="10.00">end</text>
</g>
<!-- setup_accounts&#45;&gt;end -->
<g id="edge19" class="edge">
<title>setup_accounts&#45;&gt;end</title>
<path fill="none" stroke="black" d="M259.87,-90.81C264.18,-81.56 268.45,-72.42 272.18,-64.41"/>
<polygon fill="black" stroke="black" points="275.39,-65.81 276.45,-55.27 269.05,-62.85 275.39,-65.81"/>
</g>
</g>
</svg>
